<svg width="1440" height="344" viewBox="0 0 1440 344" fill="none" xmlns="http://www.w3.org/2000/svg">
<rect width="1440" height="344" fill="#E5E5E5"/>
<g clip-path="url(#clip0_0_1)">
<rect width="1440" height="3813" transform="translate(0 -3469)" fill="#F9FAFF"/>
<path fill-rule="evenodd" clip-rule="evenodd" d="M0 258L60 229.333C120 200.667 240 143.333 360 150.5C480 157.667 600 229.333 720 229.333C840 229.333 960 157.667 1080 107.5C1200 57.3333 1320 28.6667 1380 14.3333L1440 0V344H1380C1320 344 1200 344 1080 344C960 344 840 344 720 344C600 344 480 344 360 344C240 344 120 344 60 344H0V258Z" fill="#FDC435"/>
<path d="M654 25.5C654 26.6867 653.648 27.8467 652.989 28.8334C652.33 29.8201 651.392 30.5892 650.296 31.0433C649.2 31.4974 647.993 31.6162 646.829 31.3847C645.666 31.1532 644.596 30.5818 643.757 29.7426C642.918 28.9035 642.347 27.8344 642.115 26.6705C641.884 25.5067 642.003 24.3003 642.457 23.2039C642.911 22.1075 643.68 21.1705 644.667 20.5112C645.653 19.8519 646.813 19.5 648 19.5C649.591 19.5018 651.116 20.1346 652.241 21.2594C653.365 22.3842 653.998 23.9093 654 25.5ZM666.75 17.25V33.75C666.747 36.5338 665.64 39.2027 663.671 41.1711C661.703 43.1396 659.034 44.2468 656.25 44.25H639.75C636.966 44.2468 634.297 43.1396 632.329 41.1711C630.36 39.2027 629.253 36.5338 629.25 33.75V17.25C629.253 14.4662 630.36 11.7973 632.329 9.82889C634.297 7.86044 636.966 6.75318 639.75 6.75H656.25C659.034 6.75318 661.703 7.86044 663.671 9.82889C665.64 11.7973 666.747 14.4662 666.75 17.25ZM657 25.5C657 23.72 656.472 21.9799 655.483 20.4999C654.494 19.0198 653.089 17.8663 651.444 17.1851C649.8 16.5039 647.99 16.3257 646.244 16.6729C644.498 17.0202 642.895 17.8774 641.636 19.136C640.377 20.3947 639.52 21.9984 639.173 23.7442C638.826 25.49 639.004 27.2996 639.685 28.9442C640.366 30.5887 641.52 31.9943 643 32.9832C644.48 33.9722 646.22 34.5 648 34.5C650.386 34.4973 652.674 33.5482 654.361 31.861C656.048 30.1738 656.997 27.8861 657 25.5ZM660 15.75C660 15.305 659.868 14.87 659.621 14.5C659.374 14.13 659.022 13.8416 658.611 13.6713C658.2 13.501 657.748 13.4564 657.311 13.5432C656.875 13.63 656.474 13.8443 656.159 14.159C655.844 14.4737 655.63 14.8746 655.543 15.311C655.456 15.7475 655.501 16.1999 655.671 16.611C655.842 17.0222 656.13 17.3736 656.5 17.6208C656.87 17.868 657.305 18 657.75 18C658.347 18 658.919 17.7629 659.341 17.341C659.763 16.919 660 16.3467 660 15.75Z" fill="#25282B"/>
<path d="M701 9.22175C701 7.71837 702.249 6.5 703.791 6.5H736.209C737.751 6.5 739 7.71837 739 9.22175V41.7783C739 43.2816 737.751 44.5 736.209 44.5H703.791C702.249 44.5 701 43.2816 701 41.7783V9.22175ZM712.74 38.3108V21.1514H707.037V38.3108H712.74ZM709.89 18.8073C711.878 18.8073 713.115 17.4915 713.115 15.8433C713.079 14.1594 711.88 12.8793 709.928 12.8793C707.975 12.8793 706.7 14.1617 706.7 15.8433C706.7 17.4915 707.937 18.8073 709.852 18.8073H709.89ZM721.546 38.3108V28.7276C721.546 28.2146 721.584 27.7016 721.736 27.3359C722.147 26.3123 723.085 25.2506 724.662 25.2506C726.726 25.2506 727.55 26.8229 727.55 29.1314V38.3108H733.252V28.4688C733.252 23.1962 730.441 20.7453 726.688 20.7453C723.662 20.7453 722.306 22.4078 721.546 23.5786V23.638H721.508C721.521 23.6182 721.533 23.5984 721.546 23.5786V21.1514H715.846C715.917 22.7616 715.846 38.3108 715.846 38.3108H721.546Z" fill="#25282B"/>
<path fill-rule="evenodd" clip-rule="evenodd" d="M771.131 13.6467C771.396 12.4686 772.046 11.4168 772.976 10.6635C773.906 9.91014 775.061 9.49992 776.25 9.5H807.75C808.939 9.49992 810.094 9.91014 811.024 10.6635C811.954 11.4168 812.604 12.4686 812.869 13.6467L792 26.604L771.131 13.6467ZM771 16.692V35.636L786.233 26.148L771 16.692ZM788.748 27.7133L771.501 38.452C771.927 39.3648 772.6 40.1358 773.441 40.6754C774.281 41.215 775.256 41.501 776.25 41.5H807.75C808.744 41.5002 809.718 41.2136 810.558 40.6736C811.399 40.1335 812.07 39.3622 812.496 38.4493L795.25 27.7107L792 29.7293L788.748 27.7107V27.7133ZM797.767 26.1507L813 35.636V16.692L797.767 26.148V26.1507Z" fill="#25282B"/>
<path d="M650.532 97.612C650.34 97.612 650.191 97.5587 650.084 97.452C649.977 97.3347 649.924 97.1747 649.924 96.972V86.748C649.924 86.5347 649.977 86.3747 650.084 86.268C650.191 86.1613 650.34 86.108 650.532 86.108C650.703 86.108 650.836 86.1453 650.932 86.22C651.039 86.284 651.135 86.396 651.22 86.556L655.604 94.812H655.124L659.492 86.556C659.577 86.396 659.668 86.284 659.764 86.22C659.86 86.1453 659.999 86.108 660.18 86.108C660.361 86.108 660.505 86.1613 660.612 86.268C660.719 86.3747 660.772 86.5347 660.772 86.748V96.972C660.772 97.1747 660.719 97.3347 660.612 97.452C660.516 97.5587 660.367 97.612 660.164 97.612C659.972 97.612 659.823 97.5587 659.716 97.452C659.609 97.3347 659.556 97.1747 659.556 96.972V87.98H659.94L655.94 95.484C655.865 95.6227 655.785 95.724 655.7 95.788C655.625 95.8413 655.513 95.868 655.364 95.868C655.215 95.868 655.097 95.836 655.012 95.772C654.927 95.708 654.852 95.612 654.788 95.484L650.74 87.964H651.124V96.972C651.124 97.1747 651.071 97.3347 650.964 97.452C650.868 97.5587 650.724 97.612 650.532 97.612ZM665.852 97.644C665.318 97.644 664.838 97.5427 664.412 97.34C663.996 97.1267 663.665 96.8387 663.42 96.476C663.174 96.1133 663.052 95.708 663.052 95.26C663.052 94.684 663.196 94.2307 663.484 93.9C663.782 93.5693 664.268 93.3347 664.94 93.196C665.622 93.0573 666.55 92.988 667.724 92.988H668.444V93.836H667.74C666.876 93.836 666.193 93.8787 665.692 93.964C665.201 94.0387 664.854 94.172 664.652 94.364C664.46 94.556 664.364 94.828 664.364 95.18C664.364 95.6173 664.513 95.9747 664.812 96.252C665.121 96.5293 665.537 96.668 666.06 96.668C666.486 96.668 666.86 96.5667 667.18 96.364C667.51 96.1613 667.766 95.884 667.948 95.532C668.14 95.18 668.236 94.7747 668.236 94.316V92.492C668.236 91.8307 668.102 91.356 667.836 91.068C667.569 90.7693 667.132 90.62 666.524 90.62C666.15 90.62 665.777 90.668 665.404 90.764C665.03 90.86 664.636 91.0147 664.22 91.228C664.07 91.3027 663.942 91.3293 663.836 91.308C663.729 91.276 663.644 91.2173 663.58 91.132C663.516 91.0467 663.478 90.9507 663.468 90.844C663.457 90.7267 663.478 90.6147 663.532 90.508C663.596 90.4013 663.692 90.316 663.82 90.252C664.289 90.0173 664.753 89.8467 665.212 89.74C665.67 89.6333 666.108 89.58 666.524 89.58C667.196 89.58 667.75 89.692 668.188 89.916C668.625 90.1293 668.95 90.46 669.164 90.908C669.377 91.3453 669.484 91.9107 669.484 92.604V96.94C669.484 97.1533 669.43 97.3187 669.324 97.436C669.228 97.5533 669.084 97.612 668.892 97.612C668.689 97.612 668.534 97.5533 668.428 97.436C668.321 97.3187 668.268 97.1533 668.268 96.94V95.692H668.412C668.326 96.0973 668.161 96.444 667.916 96.732C667.681 97.02 667.388 97.244 667.036 97.404C666.684 97.564 666.289 97.644 665.852 97.644ZM674.848 97.644C674.155 97.644 673.547 97.4787 673.024 97.148C672.512 96.8173 672.112 96.3533 671.824 95.756C671.547 95.148 671.408 94.4333 671.408 93.612C671.408 92.78 671.547 92.0653 671.824 91.468C672.112 90.86 672.512 90.396 673.024 90.076C673.547 89.7453 674.155 89.58 674.848 89.58C675.552 89.58 676.155 89.756 676.656 90.108C677.157 90.46 677.493 90.9347 677.664 91.532H677.488V86.764C677.488 86.5507 677.541 86.3907 677.648 86.284C677.765 86.1667 677.931 86.108 678.144 86.108C678.347 86.108 678.501 86.1667 678.608 86.284C678.725 86.3907 678.784 86.5507 678.784 86.764V96.94C678.784 97.1533 678.731 97.3187 678.624 97.436C678.517 97.5533 678.357 97.612 678.144 97.612C677.941 97.612 677.781 97.5533 677.664 97.436C677.557 97.3187 677.504 97.1533 677.504 96.94V95.42L677.68 95.644C677.509 96.252 677.168 96.7373 676.656 97.1C676.155 97.4627 675.552 97.644 674.848 97.644ZM675.12 96.604C675.6 96.604 676.021 96.4867 676.384 96.252C676.747 96.0173 677.024 95.676 677.216 95.228C677.419 94.78 677.52 94.2413 677.52 93.612C677.52 92.6413 677.301 91.9 676.864 91.388C676.437 90.876 675.856 90.62 675.12 90.62C674.629 90.62 674.203 90.7373 673.84 90.972C673.488 91.196 673.211 91.532 673.008 91.98C672.816 92.4173 672.72 92.9613 672.72 93.612C672.72 94.572 672.939 95.3133 673.376 95.836C673.813 96.348 674.395 96.604 675.12 96.604ZM684.72 97.644C683.899 97.644 683.189 97.484 682.592 97.164C682.005 96.8333 681.547 96.3693 681.216 95.772C680.896 95.1747 680.736 94.46 680.736 93.628C680.736 92.8173 680.896 92.1133 681.216 91.516C681.536 90.908 681.973 90.4333 682.528 90.092C683.093 89.7507 683.744 89.58 684.48 89.58C685.003 89.58 685.472 89.6707 685.888 89.852C686.304 90.0227 686.656 90.2733 686.944 90.604C687.243 90.9347 687.467 91.3347 687.616 91.804C687.776 92.2733 687.856 92.8013 687.856 93.388C687.856 93.5587 687.808 93.6867 687.712 93.772C687.616 93.8467 687.477 93.884 687.296 93.884H681.728V93.036H686.992L686.736 93.244C686.736 92.668 686.651 92.1827 686.48 91.788C686.309 91.3827 686.059 91.0733 685.728 90.86C685.408 90.6467 685.003 90.54 684.512 90.54C683.968 90.54 683.504 90.668 683.12 90.924C682.747 91.1693 682.464 91.516 682.272 91.964C682.08 92.4013 681.984 92.9133 681.984 93.5V93.596C681.984 94.5773 682.219 95.324 682.688 95.836C683.168 96.348 683.845 96.604 684.72 96.604C685.083 96.604 685.44 96.556 685.792 96.46C686.155 96.364 686.507 96.204 686.848 95.98C686.997 95.884 687.131 95.8413 687.248 95.852C687.376 95.852 687.477 95.8893 687.552 95.964C687.627 96.028 687.675 96.1133 687.696 96.22C687.728 96.316 687.717 96.4227 687.664 96.54C687.621 96.6573 687.531 96.7587 687.392 96.844C687.04 97.1 686.624 97.2973 686.144 97.436C685.664 97.5747 685.189 97.644 684.72 97.644ZM692.1 97.644C691.332 97.644 690.745 97.4093 690.34 96.94C689.934 96.4707 689.732 95.7987 689.732 94.924V86.764C689.732 86.5507 689.785 86.3907 689.892 86.284C689.998 86.1667 690.158 86.108 690.372 86.108C690.574 86.108 690.734 86.1667 690.852 86.284C690.969 86.3907 691.028 86.5507 691.028 86.764V94.828C691.028 95.404 691.14 95.836 691.364 96.124C691.598 96.4013 691.94 96.54 692.388 96.54C692.484 96.54 692.569 96.5347 692.644 96.524C692.718 96.5133 692.793 96.508 692.868 96.508C692.985 96.4973 693.065 96.524 693.108 96.588C693.161 96.652 693.188 96.78 693.188 96.972C693.188 97.164 693.145 97.308 693.06 97.404C692.974 97.5 692.836 97.564 692.644 97.596C692.558 97.6067 692.468 97.6173 692.372 97.628C692.276 97.6387 692.185 97.644 692.1 97.644ZM696.022 100.492C695.862 100.492 695.734 100.449 695.638 100.364C695.542 100.279 695.483 100.161 695.462 100.012C695.451 99.8733 695.478 99.7293 695.542 99.58L696.646 97.1V97.66L693.574 90.524C693.51 90.364 693.489 90.2147 693.51 90.076C693.531 89.9373 693.595 89.8253 693.702 89.74C693.809 89.6547 693.958 89.612 694.15 89.612C694.321 89.612 694.454 89.6493 694.55 89.724C694.646 89.7987 694.731 89.932 694.806 90.124L697.43 96.556H696.998L699.654 90.124C699.739 89.932 699.83 89.7987 699.926 89.724C700.022 89.6493 700.161 89.612 700.342 89.612C700.513 89.612 700.641 89.6547 700.726 89.74C700.822 89.8253 700.875 89.9373 700.886 90.076C700.907 90.204 700.886 90.348 700.822 90.508L696.726 99.98C696.641 100.172 696.545 100.305 696.438 100.38C696.342 100.455 696.203 100.492 696.022 100.492ZM703.153 97.612C702.94 97.612 702.78 97.5533 702.673 97.436C702.566 97.3187 702.513 97.1533 702.513 96.94V90.268C702.513 90.0547 702.566 89.8947 702.673 89.788C702.78 89.6707 702.934 89.612 703.137 89.612C703.34 89.612 703.494 89.6707 703.601 89.788C703.718 89.8947 703.777 90.0547 703.777 90.268V91.644L703.601 91.452C703.825 90.8333 704.188 90.3693 704.689 90.06C705.201 89.74 705.788 89.58 706.449 89.58C707.068 89.58 707.58 89.692 707.985 89.916C708.401 90.14 708.71 90.4813 708.913 90.94C709.116 91.388 709.217 91.9587 709.217 92.652V96.94C709.217 97.1533 709.158 97.3187 709.041 97.436C708.934 97.5533 708.78 97.612 708.577 97.612C708.364 97.612 708.198 97.5533 708.081 97.436C707.974 97.3187 707.921 97.1533 707.921 96.94V92.732C707.921 92.0067 707.777 91.4787 707.489 91.148C707.212 90.8067 706.764 90.636 706.145 90.636C705.43 90.636 704.86 90.86 704.433 91.308C704.017 91.7453 703.809 92.332 703.809 93.068V96.94C703.809 97.388 703.59 97.612 703.153 97.612ZM719.332 97.612C719.129 97.612 718.969 97.5533 718.852 97.436C718.734 97.308 718.676 97.1373 718.676 96.924V87.356H715.076C714.884 87.356 714.734 87.3027 714.628 87.196C714.521 87.0893 714.468 86.9507 714.468 86.78C714.468 86.5987 714.521 86.46 714.628 86.364C714.734 86.268 714.884 86.22 715.076 86.22H723.604C723.796 86.22 723.945 86.268 724.052 86.364C724.158 86.46 724.212 86.5987 724.212 86.78C724.212 86.9613 724.158 87.1053 724.052 87.212C723.945 87.308 723.796 87.356 723.604 87.356H720.004V96.924C720.004 97.1373 719.945 97.308 719.828 97.436C719.721 97.5533 719.556 97.612 719.332 97.612ZM727.37 97.644C726.613 97.644 725.957 97.4787 725.402 97.148C724.847 96.8173 724.415 96.3533 724.106 95.756C723.807 95.148 723.658 94.4333 723.658 93.612C723.658 92.9933 723.743 92.4387 723.914 91.948C724.085 91.4467 724.335 91.02 724.666 90.668C724.997 90.316 725.386 90.0493 725.834 89.868C726.293 89.676 726.805 89.58 727.37 89.58C728.127 89.58 728.783 89.7453 729.338 90.076C729.893 90.4067 730.319 90.876 730.618 91.484C730.927 92.0813 731.082 92.7907 731.082 93.612C731.082 94.2307 730.997 94.7853 730.826 95.276C730.655 95.7667 730.405 96.1933 730.074 96.556C729.743 96.908 729.349 97.18 728.89 97.372C728.442 97.5533 727.935 97.644 727.37 97.644ZM727.37 96.604C727.85 96.604 728.271 96.4867 728.634 96.252C728.997 96.0173 729.274 95.676 729.466 95.228C729.669 94.78 729.77 94.2413 729.77 93.612C729.77 92.6413 729.551 91.9 729.114 91.388C728.687 90.876 728.106 90.62 727.37 90.62C726.879 90.62 726.453 90.7373 726.09 90.972C725.738 91.196 725.461 91.532 725.258 91.98C725.066 92.4173 724.97 92.9613 724.97 93.612C724.97 94.572 725.189 95.3133 725.626 95.836C726.063 96.348 726.645 96.604 727.37 96.604ZM733.685 97.612C733.471 97.612 733.306 97.5533 733.189 97.436C733.082 97.3187 733.029 97.1533 733.029 96.94V90.268C733.029 90.0547 733.082 89.8947 733.189 89.788C733.295 89.6707 733.45 89.612 733.653 89.612C733.855 89.612 734.01 89.6707 734.117 89.788C734.234 89.8947 734.293 90.0547 734.293 90.268V91.564H734.133C734.303 90.9347 734.629 90.4493 735.109 90.108C735.589 89.7667 736.181 89.5853 736.885 89.564C737.045 89.5533 737.173 89.5907 737.269 89.676C737.365 89.7507 737.418 89.884 737.429 90.076C737.439 90.2573 737.397 90.4013 737.301 90.508C737.205 90.6147 737.055 90.6787 736.853 90.7L736.597 90.732C735.871 90.796 735.311 91.0307 734.917 91.436C734.533 91.8307 734.341 92.3747 734.341 93.068V96.94C734.341 97.1533 734.282 97.3187 734.164 97.436C734.058 97.5533 733.898 97.612 733.685 97.612ZM740.241 97.612C740.038 97.612 739.878 97.5533 739.761 97.436C739.654 97.3187 739.601 97.1533 739.601 96.94V90.732H738.577C738.406 90.732 738.267 90.6893 738.161 90.604C738.065 90.508 738.017 90.38 738.017 90.22C738.017 90.06 738.065 89.9373 738.161 89.852C738.267 89.7667 738.406 89.724 738.577 89.724H739.953L739.601 90.06V89.452C739.601 88.4387 739.846 87.6653 740.337 87.132C740.838 86.5987 741.569 86.2893 742.529 86.204L742.993 86.156C743.142 86.1453 743.259 86.172 743.345 86.236C743.441 86.3 743.499 86.38 743.521 86.476C743.553 86.572 743.558 86.6733 743.537 86.78C743.515 86.876 743.467 86.9613 743.393 87.036C743.318 87.1107 743.227 87.1533 743.121 87.164L742.753 87.196C742.102 87.2493 741.627 87.4467 741.329 87.788C741.041 88.1293 740.897 88.6307 740.897 89.292V89.964L740.705 89.724H742.625C742.806 89.724 742.945 89.7667 743.041 89.852C743.137 89.9373 743.185 90.06 743.185 90.22C743.185 90.38 743.137 90.508 743.041 90.604C742.945 90.6893 742.806 90.732 742.625 90.732H740.897V96.94C740.897 97.388 740.678 97.612 740.241 97.612ZM745.319 97.612C745.116 97.612 744.956 97.5533 744.839 97.436C744.732 97.3187 744.679 97.1533 744.679 96.94V90.732H743.655C743.484 90.732 743.346 90.6893 743.239 90.604C743.143 90.508 743.095 90.38 743.095 90.22C743.095 90.06 743.143 89.9373 743.239 89.852C743.346 89.7667 743.484 89.724 743.655 89.724H745.031L744.679 90.06V89.452C744.679 88.4387 744.924 87.6653 745.415 87.132C745.916 86.5987 746.647 86.2893 747.607 86.204L748.071 86.156C748.22 86.1453 748.338 86.172 748.423 86.236C748.519 86.3 748.578 86.38 748.599 86.476C748.631 86.572 748.636 86.6733 748.615 86.78C748.594 86.876 748.546 86.9613 748.471 87.036C748.396 87.1107 748.306 87.1533 748.199 87.164L747.831 87.196C747.18 87.2493 746.706 87.4467 746.407 87.788C746.119 88.1293 745.975 88.6307 745.975 89.292V89.964L745.783 89.724H747.703C747.884 89.724 748.023 89.7667 748.119 89.852C748.215 89.9373 748.263 90.06 748.263 90.22C748.263 90.38 748.215 90.508 748.119 90.604C748.023 90.6893 747.884 90.732 747.703 90.732H745.975V96.94C745.975 97.388 745.756 97.612 745.319 97.612ZM754.564 97.5C754.329 97.5 754.153 97.4467 754.036 97.34C753.929 97.2227 753.876 97.068 753.876 96.876C753.876 96.7587 753.903 96.6467 753.956 96.54C754.02 96.4227 754.105 96.3053 754.212 96.188L757.796 92.348C758.34 91.7613 758.729 91.2227 758.964 90.732C759.209 90.2307 759.332 89.724 759.332 89.212C759.332 88.572 759.135 88.0867 758.74 87.756C758.356 87.4147 757.791 87.244 757.044 87.244C756.564 87.244 756.111 87.3187 755.684 87.468C755.257 87.6173 754.847 87.8467 754.452 88.156C754.313 88.2627 754.185 88.3107 754.068 88.3C753.961 88.2893 753.865 88.2467 753.78 88.172C753.695 88.0973 753.636 88.0013 753.604 87.884C753.572 87.7667 753.572 87.6493 753.604 87.532C753.647 87.4147 753.732 87.308 753.86 87.212C754.276 86.8707 754.777 86.5987 755.364 86.396C755.951 86.1827 756.548 86.076 757.156 86.076C757.913 86.076 758.553 86.1933 759.076 86.428C759.599 86.6627 759.993 87.0093 760.26 87.468C760.527 87.916 760.66 88.4653 760.66 89.116C760.66 89.564 760.585 90.0067 760.436 90.444C760.297 90.8707 760.079 91.308 759.78 91.756C759.492 92.204 759.113 92.668 758.644 93.148L755.236 96.748V96.38H760.628C760.831 96.38 760.98 96.428 761.076 96.524C761.183 96.6093 761.236 96.7427 761.236 96.924C761.236 97.116 761.183 97.26 761.076 97.356C760.98 97.452 760.831 97.5 760.628 97.5H754.564ZM766.894 97.644C765.603 97.644 764.622 97.148 763.95 96.156C763.278 95.164 762.942 93.7293 762.942 91.852C762.942 90.5933 763.091 89.5373 763.39 88.684C763.688 87.82 764.131 87.1693 764.718 86.732C765.315 86.2947 766.04 86.076 766.894 86.076C768.195 86.076 769.176 86.5667 769.838 87.548C770.51 88.5187 770.846 89.948 770.846 91.836C770.846 93.0947 770.696 94.156 770.398 95.02C770.099 95.884 769.656 96.54 769.07 96.988C768.483 97.4253 767.758 97.644 766.894 97.644ZM766.894 96.508C767.79 96.508 768.451 96.1293 768.878 95.372C769.315 94.604 769.534 93.4253 769.534 91.836C769.534 90.236 769.315 89.068 768.878 88.332C768.451 87.5853 767.79 87.212 766.894 87.212C766.008 87.212 765.347 87.5853 764.91 88.332C764.472 89.0787 764.254 90.2467 764.254 91.836C764.254 93.4253 764.472 94.604 764.91 95.372C765.347 96.1293 766.008 96.508 766.894 96.508ZM773.752 97.5C773.517 97.5 773.341 97.4467 773.224 97.34C773.117 97.2227 773.064 97.068 773.064 96.876C773.064 96.7587 773.09 96.6467 773.144 96.54C773.208 96.4227 773.293 96.3053 773.4 96.188L776.984 92.348C777.528 91.7613 777.917 91.2227 778.152 90.732C778.397 90.2307 778.52 89.724 778.52 89.212C778.52 88.572 778.322 88.0867 777.928 87.756C777.544 87.4147 776.978 87.244 776.232 87.244C775.752 87.244 775.298 87.3187 774.872 87.468C774.445 87.6173 774.034 87.8467 773.64 88.156C773.501 88.2627 773.373 88.3107 773.256 88.3C773.149 88.2893 773.053 88.2467 772.968 88.172C772.882 88.0973 772.824 88.0013 772.792 87.884C772.76 87.7667 772.76 87.6493 772.792 87.532C772.834 87.4147 772.92 87.308 773.048 87.212C773.464 86.8707 773.965 86.5987 774.552 86.396C775.138 86.1827 775.736 86.076 776.344 86.076C777.101 86.076 777.741 86.1933 778.264 86.428C778.786 86.6627 779.181 87.0093 779.448 87.468C779.714 87.916 779.848 88.4653 779.848 89.116C779.848 89.564 779.773 90.0067 779.624 90.444C779.485 90.8707 779.266 91.308 778.968 91.756C778.68 92.204 778.301 92.668 777.832 93.148L774.424 96.748V96.38H779.816C780.018 96.38 780.168 96.428 780.264 96.524C780.37 96.6093 780.424 96.7427 780.424 96.924C780.424 97.116 780.37 97.26 780.264 97.356C780.168 97.452 780.018 97.5 779.816 97.5H773.752ZM783.761 97.5C783.569 97.5 783.42 97.452 783.313 97.356C783.207 97.2493 783.153 97.1053 783.153 96.924C783.153 96.7427 783.207 96.6093 783.313 96.524C783.42 96.428 783.569 96.38 783.761 96.38H785.841V87.308H786.529L784.209 88.844C784.071 88.9187 783.937 88.9507 783.809 88.94C783.692 88.9293 783.591 88.8867 783.505 88.812C783.431 88.7267 783.377 88.6307 783.345 88.524C783.313 88.4067 783.319 88.2893 783.361 88.172C783.404 88.044 783.495 87.9373 783.633 87.852L785.841 86.396C785.98 86.3107 786.113 86.2413 786.241 86.188C786.369 86.1347 786.497 86.108 786.625 86.108C786.775 86.108 786.897 86.156 786.993 86.252C787.1 86.3373 787.153 86.476 787.153 86.668V96.38H789.073C789.265 96.38 789.415 96.428 789.521 96.524C789.628 96.6093 789.681 96.7427 789.681 96.924C789.681 97.116 789.628 97.26 789.521 97.356C789.415 97.452 789.265 97.5 789.073 97.5H783.761Z" fill="#828282"/>
</g>
<defs>
<clipPath id="clip0_0_1">
<rect width="1440" height="3813" fill="white" transform="translate(0 -3469)"/>
</clipPath>
</defs>
</svg>
