<svg width="1440" height="344" viewBox="0 0 1440 344" fill="none" xmlns="http://www.w3.org/2000/svg">
<path fill-rule="evenodd" clip-rule="evenodd" d="M-11 258L49.4583 229.333C109.917 200.667 230.833 143.333 351.75 150.5C472.667 157.667 593.583 229.333 714.5 229.333C835.417 229.333 956.333 157.667 1077.25 107.5C1198.17 57.3333 1319.08 28.6667 1379.54 14.3333L1440 0V344H1379.54C1319.08 344 1198.17 344 1077.25 344C956.333 344 835.417 344 714.5 344C593.583 344 472.667 344 351.75 344C230.833 344 109.917 344 49.4583 344H-11V258Z" fill="#FDC435"/>
</svg>
